<svg id="Capa_1" data-name="Capa 1" xmlns="http://www.w3.org/2000/svg" viewBox="0 0 59 74"><defs><style>.cls-1{fill:#fff;}</style></defs><path class="cls-1" d="M8.72,59c0,1.47-1,2.42-2.86,2.42a9.34,9.34,0,0,1-1,0v2.36a3,3,0,0,1-.6.07,3.17,3.17,0,0,1-.61-.07V57a9.06,9.06,0,0,1,2.13-.23C7.85,56.75,8.72,57.65,8.72,59ZM7.46,59c0-.74-.52-1.21-1.61-1.21a7.46,7.46,0,0,0-.95.06v2.48q.42,0,1,0C7,60.37,7.46,59.8,7.46,59Z"/><path class="cls-1" d="M9,61.22a2.6,2.6,0,0,1,2.7-2.68,2.55,2.55,0,0,1,2.65,2.68A2.6,2.6,0,0,1,11.7,63.9,2.56,2.56,0,0,1,9,61.22Zm4.14,0a1.47,1.47,0,1,0-1.46,1.63A1.47,1.47,0,0,0,13.18,61.22Z"/><path class="cls-1" d="M15.26,63.74v-7a2.32,2.32,0,0,1,.59-.06,2.56,2.56,0,0,1,.62.06v7a3,3,0,0,1-.61,0A3.17,3.17,0,0,1,15.26,63.74Z"/><path class="cls-1" d="M17.68,57.24a.78.78,0,0,1,1.55,0,.78.78,0,0,1-1.55,0Z"/><path class="cls-1" d="M17.86,63.74v-5a2.48,2.48,0,0,1,.61-.06,2.37,2.37,0,0,1,.59.06v5a2.88,2.88,0,0,1-.59,0A3.14,3.14,0,0,1,17.86,63.74Z"/><path class="cls-1" d="M24.24,63.35a2.37,2.37,0,0,1-1.52.54c-1.09,0-1.89-.49-1.89-1.71V59.74H20a2.67,2.67,0,0,1,0-.5,2.59,2.59,0,0,1,0-.48h.86V57.42a3.23,3.23,0,0,1,.61-.06,2.88,2.88,0,0,1,.59.06v1.34h1.89a2,2,0,0,1,0,.48,2.12,2.12,0,0,1,0,.5H22v2.17c0,.74.35.94.85.94a1.31,1.31,0,0,0,.84-.35A1.31,1.31,0,0,1,24.24,63.35Z"/><path class="cls-1" d="M29.4,61.54H25.83a1.37,1.37,0,0,0,1.45,1.35,2.4,2.4,0,0,0,1.49-.52,1.22,1.22,0,0,1,.52.82,3.21,3.21,0,0,1-2.1.71,2.47,2.47,0,0,1-2.6-2.65,2.55,2.55,0,0,1,2.54-2.7,2.2,2.2,0,0,1,2.31,2.28A5.63,5.63,0,0,1,29.4,61.54Zm-1.14-.8a1.1,1.1,0,0,0-1.13-1.21,1.26,1.26,0,0,0-1.29,1.21Zm-2.35-3,1.68-1.57a1.42,1.42,0,0,1,.69,1l-2,1.1A.78.78,0,0,1,25.91,57.74Z"/><path class="cls-1" d="M30.24,61.22a2.58,2.58,0,0,1,2.68-2.7,2.67,2.67,0,0,1,1.7.58A1.43,1.43,0,0,1,34,60a1.57,1.57,0,0,0-1-.4,1.65,1.65,0,0,0,0,3.28,1.59,1.59,0,0,0,1.12-.43,1.31,1.31,0,0,1,.64.82,2.61,2.61,0,0,1-1.77.65A2.49,2.49,0,0,1,30.24,61.22Z"/><path class="cls-1" d="M40.18,60.64v3.1a3.1,3.1,0,0,1-.6,0,3.14,3.14,0,0,1-.61,0V60.93c0-.93-.45-1.28-1.23-1.28a2.45,2.45,0,0,0-1.12.27v3.82a3,3,0,0,1-.6,0,3,3,0,0,1-.6,0v-4.4a3.89,3.89,0,0,1,2.42-.8A2,2,0,0,1,40.18,60.64Z"/><path class="cls-1" d="M41.13,57.24a.78.78,0,0,1,1.55,0,.78.78,0,0,1-1.55,0Z"/><path class="cls-1" d="M41.31,63.74v-5a2.45,2.45,0,0,1,.6-.06,2.4,2.4,0,0,1,.6.06v5a2.92,2.92,0,0,1-.6,0A3.1,3.1,0,0,1,41.31,63.74Z"/><path class="cls-1" d="M43.59,61.24a2.58,2.58,0,0,1,2.68-2.7,2.73,2.73,0,0,1,1.7.57,1.45,1.45,0,0,1-.65.87,1.56,1.56,0,0,0-1-.4,1.65,1.65,0,0,0,0,3.28,1.61,1.61,0,0,0,1.12-.43,1.31,1.31,0,0,1,.64.82,2.61,2.61,0,0,1-1.77.65A2.49,2.49,0,0,1,43.59,61.24Z"/><path class="cls-1" d="M48.65,61.18a2.6,2.6,0,0,1,2.69-2.69A2.56,2.56,0,0,1,54,61.18a2.6,2.6,0,0,1-2.7,2.68A2.55,2.55,0,0,1,48.65,61.18Zm4.13,0a1.47,1.47,0,1,0-1.46,1.62A1.46,1.46,0,0,0,52.78,61.18Z"/><path class="cls-1" d="M3.69,70.83v-5.6a1.71,1.71,0,0,1,.49-.07,1.73,1.73,0,0,1,.5.07v5.6a2.61,2.61,0,0,1-.48,0A2.94,2.94,0,0,1,3.69,70.83Z"/><path class="cls-1" d="M9.8,68.29v2.54a2.81,2.81,0,0,1-.5,0,2.77,2.77,0,0,1-.49,0V68.52c0-.76-.37-1-1-1a2,2,0,0,0-.92.23v3.13a2.74,2.74,0,0,1-.5,0,2.85,2.85,0,0,1-.49,0V67.22a3.22,3.22,0,0,1,2-.66A1.68,1.68,0,0,1,9.8,68.29Z"/><path class="cls-1" d="M13.94,70.51A2,2,0,0,1,12.7,71c-.9,0-1.55-.4-1.55-1.4v-2h-.71a1.8,1.8,0,0,1,0-.41,1.71,1.71,0,0,1,0-.39h.71v-1.1a2.07,2.07,0,0,1,.5-.05,2,2,0,0,1,.48.05v1.1h1.54a1.31,1.31,0,0,1,.05.39,1.44,1.44,0,0,1-.05.41H12.13v1.78c0,.61.29.76.7.76a1.1,1.1,0,0,0,.69-.27A1,1,0,0,1,13.94,70.51Z"/><path class="cls-1" d="M18.25,69H15.32a1.13,1.13,0,0,0,1.19,1.1,2,2,0,0,0,1.22-.43,1,1,0,0,1,.43.67,2.64,2.64,0,0,1-1.72.59,2,2,0,0,1-2.14-2.18,2.09,2.09,0,0,1,2.08-2.21,1.8,1.8,0,0,1,1.9,1.87C18.28,68.66,18.27,68.8,18.25,69Zm-.94-.66a.89.89,0,0,0-.93-1,1,1,0,0,0-1,1Z"/><path class="cls-1" d="M21.8,66.7a1.4,1.4,0,0,1-.27.86,2.59,2.59,0,0,0-.63-.08,1.52,1.52,0,0,0-.77.17v3.18a3.14,3.14,0,0,1-1,0V67.17a2.71,2.71,0,0,1,1.75-.6A2.84,2.84,0,0,1,21.8,66.7Z"/><path class="cls-1" d="M26.24,68.29v2.54a3.14,3.14,0,0,1-1,0V68.52c0-.76-.37-1-1-1a1.93,1.93,0,0,0-.92.23v3.13a2.74,2.74,0,0,1-.5,0,2.77,2.77,0,0,1-.49,0V67.22a3.19,3.19,0,0,1,2-.66A1.68,1.68,0,0,1,26.24,68.29Z"/><path class="cls-1" d="M30.75,68.29v2.26a4.65,4.65,0,0,1-1.92.41C27.61,71,27,70.44,27,69.61s.74-1.32,1.75-1.31a3.12,3.12,0,0,1,1,.16v-.24c0-.49-.33-.79-1-.79a1.93,1.93,0,0,0-1.15.37.86.86,0,0,1-.46-.64,2.58,2.58,0,0,1,1.68-.59C29.94,66.57,30.75,67.06,30.75,68.29ZM28.92,70.2a2.88,2.88,0,0,0,.86-.13v-.89a2.37,2.37,0,0,0-1-.17c-.49,0-.82.17-.82.56S28.31,70.2,28.92,70.2Z"/><path class="cls-1" d="M31.52,68.77a2.12,2.12,0,0,1,2.19-2.21,2.19,2.19,0,0,1,1.4.48,1.19,1.19,0,0,1-.53.7,1.32,1.32,0,0,0-.86-.32,1.35,1.35,0,0,0,0,2.68,1.3,1.3,0,0,0,.92-.35,1.1,1.1,0,0,1,.52.68,2.14,2.14,0,0,1-1.45.53A2,2,0,0,1,31.52,68.77Z"/><path class="cls-1" d="M35.79,65.44a.64.64,0,0,1,1.28,0,.64.64,0,0,1-1.28,0Zm.15,5.39V66.69a2.81,2.81,0,0,1,.5,0,2.7,2.7,0,0,1,.49,0v4.14a2.63,2.63,0,0,1-.49,0A2.89,2.89,0,0,1,35.94,70.83Z"/><path class="cls-1" d="M37.81,68.77A2.14,2.14,0,0,1,40,66.56a2.1,2.1,0,0,1,2.18,2.21A2.13,2.13,0,0,1,40,71,2.09,2.09,0,0,1,37.81,68.77Zm3.39,0a1.2,1.2,0,1,0-2.39,0,1.2,1.2,0,1,0,2.39,0Z"/><path class="cls-1" d="M47,68.29v2.54a2.89,2.89,0,0,1-.5,0,2.81,2.81,0,0,1-.5,0V68.52c0-.76-.37-1-1-1a1.92,1.92,0,0,0-.91.23v3.13a2.81,2.81,0,0,1-.5,0,2.7,2.7,0,0,1-.49,0V67.22a3.19,3.19,0,0,1,2-.66A1.68,1.68,0,0,1,47,68.29Z"/><path class="cls-1" d="M51.47,68.29v2.26a4.65,4.65,0,0,1-1.92.41c-1.22,0-1.82-.52-1.82-1.35s.74-1.32,1.74-1.31a3.14,3.14,0,0,1,1,.16v-.24c0-.49-.34-.79-1-.79a1.93,1.93,0,0,0-1.15.37.86.86,0,0,1-.46-.64,2.58,2.58,0,0,1,1.68-.59C50.66,66.57,51.47,67.06,51.47,68.29ZM49.64,70.2a2.93,2.93,0,0,0,.86-.13v-.89a2.37,2.37,0,0,0-1-.17c-.49,0-.82.17-.82.56S49,70.2,49.64,70.2Z"/><path class="cls-1" d="M52.49,70.83V65.09a2.63,2.63,0,0,1,.49,0,2.92,2.92,0,0,1,.51,0v5.74a2.81,2.81,0,0,1-.5,0A2.89,2.89,0,0,1,52.49,70.83Z"/><path class="cls-1" d="M42.27,36.82c-9,1.32-15.61,5.46-15.61,10.37A6.87,6.87,0,0,0,29,52.06a25.68,25.68,0,0,1-6.92-8.27,8.07,8.07,0,0,1-1-3.77c0-7.67,11.61-13.93,26.15-14.24q.49-1.53.9-3.09C32.6,22.76,20,29.28,20,37.31a7.91,7.91,0,0,0,.2,1.76,22.23,22.23,0,0,1-.74-5.68c0-.75,0-1.49.11-2.22h0c1.28-9.81,13.68-17.64,28.79-17.64.45,0,.9,0,1.35,0,.07-.77.14-1.53.17-2.3l-1.52,0c-12.71,0-23.47,5.62-27.09,13.36C25.41,15,36,8.2,48.4,8.2c.54,0,1.07,0,1.6,0,0-1.3,0-2.59-.14-3.86A73.38,73.38,0,0,0,7.44,10.91c-.09,1.17-.14,2.36-.14,3.55a44.18,44.18,0,0,0,21.53,38A56.62,56.62,0,0,0,42.3,36.82Z"/></svg>